Simulation
nRows=20
nColumns=15
endheader
time  TH_x TH_y TH_z SC_y  SC_z  SC_x  AC_y  AC_z  AC_x  GH_y  GH_z  GH_yy  EL_x  PS_y
0.0  0.000000  0.000000  0.000000  -29.053974964850788  -0.4525345756429794  0.11705596544503602  49.705644752809235  5.527900569867446  -4.51663676934365  41.42182780327839  8.578400000824832  -10.905402845996084  22.74563101966124  0.000000
0.031  0.000000  0.000000  0.000000  -29.034978150563038  -0.3442322474623023  0.24943487420139443  49.529421859912276  5.67587701406287  -4.613858202958966  40.24835097006908  8.812988533754044  -9.824080323099006  22.724700411063317  0.000000
0.062  0.000000  0.000000  0.000000  -28.92797410007757  -0.3043825881792905  0.34688940019323533  49.42534850591303  5.671433255629064  -4.748518795542964  39.517385310666995  9.043976433905481  -9.131177052241181  22.72264575411153  0.000000
0.093  0.000000  0.000000  0.000000  -28.929256789075993  -0.3350860582642845  0.42995494075649476  49.34633294459155  5.570749792177984  -4.882406265347235  39.27073062388143  9.300367802792252  -8.943617099602601  22.681292407027627  0.000000
0.124  0.000000  0.000000  0.000000  -28.91559452773198  -0.3928677653557578  0.4858662158360907  49.281257616145595  5.4535562372617665  -5.018479516251935  39.369665091151475  9.557519299301333  -9.135784577608622  22.59504972089168  0.000000
0.155  0.000000  0.000000  0.000000  -28.932943536929255  -0.4676346848428656  0.5279740133258812  49.23627025577006  5.342562107190882  -5.144345746727713  39.59695295007103  9.848790986697791  -9.501730390445765  22.47117008749961  0.000000
0.186  0.000000  0.000000  0.000000  -28.9597457272119  -0.5459742467502259  0.558114636023625  49.1949121896144  5.247159675172055  -5.257680585791375  39.86375451583311  10.195990675054004  -9.995423930512686  22.31480612830029  0.000000
0.217  0.000000  0.000000  0.000000  -29.009721916824635  -0.6229481673393225  0.5861236158331432  49.17261520343638  5.166037957369706  -5.361927877123871  40.069221787595446  10.625099515118489  -10.517619807670812  22.134819153328  0.000000
0.248  0.000000  0.000000  0.000000  -29.07520589033182  -0.6904738525625574  0.6161978764689808  49.14994067831237  5.096384042283603  -5.453380586796365  40.18320907511335  11.141580273133938  -11.0576167446981  21.942836951893007  0.000000
0.279  0.000000  0.000000  0.000000  -29.1564599773603  -0.7463329268356943  0.6533282422340703  49.13994128467887  5.038394165861439  -5.537936543975056  40.18563604850036  11.751546489713338  -11.585142706918848  21.741335409093498  0.000000
0.31  0.000000  0.000000  0.000000  -29.24393661433121  -0.78845225049564  0.701705677781052  49.131722639288036  4.993344949109159  -5.612193639037918  40.06845107034121  12.445301093162241  -12.08842363641574  21.542066829231725  0.000000
0.34099999999999997  0.000000  0.000000  0.000000  -29.33451790923191  -0.8175461715667605  0.7641828525772352  49.13892112114708  4.960917342038287  -5.678111521535586  39.8267852181354  13.219957172515318  -12.55598207635752  21.35080029289014  0.000000
0.372  0.000000  0.000000  0.000000  -29.42591956799756  -0.8370268989939712  0.8420588661852659  49.16444554131628  4.940596845846819  -5.729462394091504  39.4252400368899  14.066988047037727  -12.95502459381532  21.19154026793766  0.000000
0.403  0.000000  0.000000  0.000000  -29.520981372835344  -0.8525227843816432  0.9341343027906936  49.223748962672126  4.929063098631405  -5.762482828801797  38.824377572289066  14.98463114496764  -13.25398932271772  21.08626724028091  0.000000
0.434  0.000000  0.000000  0.000000  -29.62045067855671  -0.8693353337227885  1.0386493857891257  49.323617211968234  4.924868844358932  -5.772319120693126  37.99599424898557  15.969279733129458  -13.426021826821824  21.059636178951052  0.000000
0.46499999999999997  0.000000  0.000000  0.000000  -29.719956459138817  -0.8879602254345881  1.1534089918701513  49.466890245730056  4.9267947461506605  -5.756529948490655  36.952517558461516  17.01896841730451  -13.46762813351939  21.112678434335166  0.000000
0.496  0.000000  0.000000  0.000000  -29.808818975117816  -0.9037386576695489  1.276112091566789  49.64705207739679  4.937630764311381  -5.715544776252891  35.753512558532606  18.131726163090363  -13.400934751271498  21.224612497945582  0.000000
0.527  0.000000  0.000000  0.000000  -29.87508155206179  -0.9081387619298825  1.4057456620441278  49.850308319664464  4.960675384888094  -5.650860192648725  34.47758309238647  19.30399102371047  -13.255742966336358  21.358305515916978  0.000000
0.558  0.000000  0.000000  0.000000  -29.912155853915277  -0.8919125824323912  1.5431314766637867  50.06186846274803  5.001063140758226  -5.568354435832203  33.21194613897972  20.53186229929606  -13.075200640439348  21.48143817510816  0.000000
0.589  0.000000  0.000000  0.000000  -29.926138823367655  -0.8470857544274067  1.6925846073326751  50.26675338678928  5.061730789224411  -5.474344370902211  32.03070184132771  21.809074930395067  -12.906223398688091  21.57488799818694  0.000000
